<?xml version="1.0" ?><svg viewBox="0 0 32 32" xmlns="http://www.w3.org/2000/svg"><title/><g id="Website"><path fill="#555" d="M26.49,30H5.5A3.35,3.35,0,0,1,3,29a3.35,3.35,0,0,1-1-2.48V5.5A3.35,3.35,0,0,1,3,3,3.35,3.35,0,0,1,5.5,2h21A3.35,3.35,0,0,1,29,3,3.35,3.35,0,0,1,30,5.5v21A3.52,3.52,0,0,1,26.49,30ZM16,7.21a8.36,8.36,0,0,0-3.35.68A8.6,8.6,0,0,0,9.9,9.74,8.79,8.79,0,0,0,8,12.49a8.71,8.71,0,0,0,0,6.7A8.68,8.68,0,0,0,9.9,21.94a8.79,8.79,0,0,0,2.75,1.86,8.71,8.71,0,0,0,6.7,0,8.79,8.79,0,0,0,2.75-1.86A8.68,8.68,0,0,0,24,19.19a8.71,8.71,0,0,0,0-6.7A8.79,8.79,0,0,0,22.1,9.74a8.6,8.6,0,0,0-2.75-1.85A8.36,8.36,0,0,0,16,7.21Zm-6.5,5h2.69A10.57,10.57,0,0,0,11.7,14H8.81A8,8,0,0,1,9.5,12.21Zm0,7.26a7.7,7.7,0,0,1-.69-1.74H11.7a11.33,11.33,0,0,0,.49,1.74Zm3.81-4.86-.82,2.48-.5.21-.52-1.69L11,17.3l-.51-.21-.8-2.48.51-.22.57,1.91.45-1.23h.57l.44,1.23.6-1.91Zm-2.57-4a7.3,7.3,0,0,1,3.8-2.05,9.68,9.68,0,0,0-2,3H10A6.62,6.62,0,0,1,10.74,10.59Zm0,10.51a6.3,6.3,0,0,1-.78-.93h2.51a9.81,9.81,0,0,0,2.07,3A7.21,7.21,0,0,1,10.74,21.1ZM12.46,14a9.71,9.71,0,0,1,.5-1.75h2.67V14Zm3.17,5.51H13a9.38,9.38,0,0,1-.5-1.74h3.17Zm0,3.67a9.21,9.21,0,0,1-2.36-3h2.36Zm0-14.6v3H13.3A9.09,9.09,0,0,1,15.63,8.54ZM16,15.61l-.51,1.69-.5-.21-.83-2.48.51-.22.6,1.91.44-1.23h.58l.44,1.23.57-1.91.53.22L17,17.09l-.51.21Zm.37-7.1a9.35,9.35,0,0,1,2.36,3H16.37Zm0,3.7H19A8.4,8.4,0,0,1,19.57,14h-3.2Zm3.2,5.52A8.13,8.13,0,0,1,19,19.47H16.37V17.73Zm-3.2,5.44v-3h2.36A9.36,9.36,0,0,1,16.37,23.17Zm4.89-12.58a6.62,6.62,0,0,1,.78.9H19.53a10.11,10.11,0,0,0-2.07-3A7.3,7.3,0,0,1,21.26,10.59Zm0,10.51a7.21,7.21,0,0,1-3.8,2,9.81,9.81,0,0,0,2.07-3H22A6.3,6.3,0,0,1,21.26,21.1Zm-1.75-4-.82-2.48.51-.22.6,1.91.44-1.23h.57l.45,1.23.57-1.91.51.22-.8,2.48L21,17.3l-.5-1.69L20,17.3Zm3-4.88A8,8,0,0,1,23.19,14H20.3a10.51,10.51,0,0,0-.47-1.75Zm0,7.26H19.83a11.23,11.23,0,0,0,.47-1.74h2.89A7.7,7.7,0,0,1,22.5,19.47Z"/></g></svg>