<?xml version="1.0" standalone="no"?>
<!DOCTYPE svg PUBLIC "-//W3C//DTD SVG 20010904//EN"
 "http://www.w3.org/TR/2001/REC-SVG-20010904/DTD/svg10.dtd">
<svg version="1.0" xmlns="http://www.w3.org/2000/svg"
 width="1041.000000pt" height="261.000000pt" viewBox="0 0 1041.000000 261.000000"
 preserveAspectRatio="xMidYMid meet">

<g transform="translate(0.000000,261.000000) scale(0.100000,-0.100000)"
fill="#000000" stroke="none">
<path d="M7351 2363 c-35 -18 -91 -86 -91 -111 0 -9 -12 -4 -35 16 -45 40 -93
49 -149 28 -48 -18 -90 -69 -101 -122 -7 -37 14 -96 47 -131 l21 -23 -21 0
c-26 0 -27 -13 -4 -60 14 -27 23 -34 41 -32 23 2 23 1 19 -78 l-3 -80 262 0
263 0 0 55 c0 53 1 55 28 55 15 0 46 -10 69 -22 23 -12 45 -19 50 -15 10 10
17 189 9 222 -8 30 -31 32 -66 5 -34 -27 -86 -26 -101 1 -6 12 -7 24 -2 28 16
11 33 62 33 98 0 50 -35 118 -77 150 -46 35 -140 43 -192 16z m-56 -273 c3 -5
-3 -10 -15 -10 -12 0 -18 5 -15 10 3 6 10 10 15 10 5 0 12 -4 15 -10z"/>
<path d="M7137 1643 c-3 -15 0 -36 5 -48 7 -17 -2 -79 -37 -251 -25 -126 -51
-233 -56 -238 -5 -6 -9 -26 -9 -46 0 -20 -29 -184 -65 -365 -68 -344 -71 -365
-55 -365 15 0 17 7 115 375 48 182 94 335 101 341 8 6 14 29 14 50 0 34 71
319 83 330 6 6 14 -99 37 -491 11 -187 25 -403 30 -480 5 -77 10 -155 10 -172
0 -25 4 -33 19 -33 22 0 24 21 46 495 9 182 20 402 25 490 5 88 10 177 10 198
0 52 15 39 30 -25 7 -29 28 -108 46 -175 19 -67 34 -135 34 -151 0 -17 4 -32
9 -34 5 -1 50 -158 101 -348 51 -190 95 -353 98 -362 5 -21 32 -24 32 -4 0 8
-32 171 -70 362 -47 233 -67 351 -60 358 15 15 12 36 -9 54 -13 12 -25 52 -41
132 -12 63 -32 167 -45 230 -14 66 -20 116 -14 118 5 2 9 21 9 43 l0 39 -194
0 -194 0 -5 -27z m93 -74 c0 -28 -111 -442 -121 -453 -5 -5 -11 -8 -13 -5 -5
4 78 436 89 467 8 21 45 14 45 -9z m144 -136 c-3 -87 -9 -196 -13 -243 -6 -83
-7 -85 -32 -88 -26 -3 -27 -1 -33 55 -6 53 -26 374 -26 416 0 14 9 17 56 17
l55 0 -7 -157z m135 5 c56 -271 64 -318 57 -325 -3 -3 -8 -4 -11 -1 -7 7 -125
447 -125 466 0 6 11 12 24 12 22 0 25 -8 55 -152z m-425 -433 c-4 -24 -9 -32
-14 -24 -5 7 -6 18 -4 26 12 39 15 45 20 40 3 -3 2 -22 -2 -42z m263 -92 c-4
-75 -7 -161 -7 -192 0 -34 -4 -51 -9 -46 -10 10 -33 354 -24 368 2 4 14 7 25
7 21 0 21 -2 15 -137z m251 85 c12 -60 8 -75 -8 -32 -18 46 -23 84 -13 84 6 0
15 -24 21 -52z"/>
<path d="M8240 945 l0 -625 30 0 30 0 0 200 0 200 118 0 c155 0 208 16 272 79
74 74 110 188 110 351 0 157 -49 294 -127 360 -59 48 -116 60 -285 60 l-148 0
0 -625z m328 523 c65 -16 122 -76 147 -153 15 -46 20 -87 20 -175 0 -143 -19
-204 -79 -265 -53 -53 -100 -65 -245 -65 l-111 0 0 335 0 335 111 0 c60 0 131
-5 157 -12z"/>
<path d="M9450 946 l0 -626 30 0 30 0 0 199 0 199 138 4 c130 3 140 5 190 32
92 51 141 143 163 301 22 165 -17 339 -94 423 -73 78 -98 86 -289 90 l-168 4
0 -626z m313 525 c120 -28 181 -142 179 -336 -1 -157 -39 -247 -125 -296 -37
-21 -56 -24 -174 -27 l-133 -4 0 336 0 336 108 0 c59 0 124 -4 145 -9z"/>
</g>
</svg>
